
		<svg xmlns="http://www.w3.org/2000/svg" xmlns:xlink="http://www.w3.org/1999/xlink" version="1.1" width="3088.8888888888887" height="2124.4444444444443">
			
			<g transform="scale(4.444444444444445) translate(10, 10)">
				<defs id="SvgjsDefs1224"></defs><g id="SvgjsG1225" featureKey="root" fill="#ccc"  transform="matrix(1,0,0,1,NaN,NaN)"></g><g id="SvgjsG1226" featureKey="container1" fill="#ccc" transform="matrix(5.813953564783713,0,0,5.813953564783713,0,0)"><path xmlns="http://www.w3.org/2000/svg" d="M116.1 78.7H0V0h116.1zM2 76.7h112.1V2H2z" fill="#ccc"></path></g><g id="SvgjsG1227" featureKey="text1" fill="#ccc" transform="matrix(4.219242556684331,0,0,4.219242556684331,111.15223207581249,134.94891651680297)"><path d="M13.254 15.6102 c0.23729 0 0.35559 0.15254 0.2539 0.38966 l-3.2712 7.7798 c-0.033898 0.11864 -0.16949 0.22017 -0.30492 0.22017 l-0.23729 0 c-0.15254 0 -0.28814 -0.10153 -0.35593 -0.22017 l-2.3388 -4.4068 l-2.3559 4.4068 c-0.067797 0.11864 -0.20339 0.22017 -0.35593 0.22017 l-0.23729 0 c-0.15254 0 -0.27119 -0.10153 -0.32203 -0.22017 l-3.2542 -7.7798 c-0.10153 -0.23712 0.017115 -0.38966 0.25441 -0.38966 l1.7627 0 c0.16949 0 0.32203 0.10169 0.38983 0.23729 l1.6271 4.2712 l1.9492 -4.2034 c0.067797 -0.13559 0.20339 -0.22034 0.38983 -0.22034 l0.28797 0 c0.20339 0 0.3222 0.084746 0.37305 0.22034 l1.9659 4.2034 l1.6271 -4.2712 c0.067797 -0.13559 0.20339 -0.23729 0.37271 -0.23729 l1.7798 0 z M23.508450847457624 23.57644 c0.050847 0.22034 -0.033898 0.42339 -0.20339 0.42339 l-1.4237 0 c-0.54237 0 -0.83051 -0.37288 -0.83051 -0.84746 l0 -4.1864 c0 -0.94915 -0.74559 -1.3898 -1.5422 -1.3898 c-0.74576 0 -1.3898 0.33898 -1.9661 0.88136 l0 5.2202 l0 0.067797 c-0.033898 0.11881 -0.13559 0.22051 -0.27119 0.25424 l-0.050847 0 l-1.7119 0 c-0.16949 0 -0.30508 -0.15238 -0.30508 -0.32186 l0 -7.7456 l0 -0.050847 l0 -3.7966 c0 -0.62695 -0.11864 -0.91508 -0.18644 -1.2202 c-0.050847 -0.22034 0.033732 -0.42373 0.22034 -0.42373 l1.4746 0 c0.49153 0 0.83051 0.32203 0.83051 0.77966 l0 5.0678 c0.59322 -0.42356 1.3559 -0.79661 2.322 -0.79661 c1.7288 0 3.5085 1.1697 3.5085 3.2542 l0 3.7288 c0.016784 0.47458 0.067631 0.79661 0.13543 1.1017 z M32.847430508474574 23.57644 c-0.25441 -1.661 -0.27153 -3.1529 -0.20373 -4.7631 c0.08458 -2.0168 -1.0678 -3.3049 -3.1356 -3.3049 c-1.3729 0 -2.8136 0.38983 -3.6441 0.84746 c-0.16933 0.10186 -0.30492 0.28831 -0.22017 0.4578 l0.54237 1.2881 c0.084746 0.18644 0.22034 0.25424 0.47458 0.15254 c1.0169 -0.44068 1.8644 -0.69492 2.678 -0.69492 c0.66102 0 1.0678 0.13559 1.051 0.79661 c-2.7458 0.47458 -5.2373 1.0169 -5.2373 3.339 c0 1.5424 1.1017 2.3897 2.8475 2.3897 c1.4407 0 2.0847 -0.42356 2.6102 -0.9322 c0.11864 0.50864 0.32203 0.84746 0.74576 0.84746 l1.2712 0 c0.18644 0 0.25424 -0.22017 0.22034 -0.42356 z M28.423430508474574 22.2541 c-0.52542 0 -0.88136 -0.15254 -0.88136 -0.59322 c0 -0.76271 1.6102 -1.1017 2.8136 -1.3559 c-0.016949 0.37288 -0.016949 0.94915 0 1.2712 c-0.50847 0.42356 -1.322 0.67797 -1.9322 0.67797 z M44.948661016949146 10.441 c0.16949 0 0.32203 0.13592 0.32203 0.32237 l0 1.6949 c0 0.16933 -0.15254 0.32186 -0.32203 0.32186 l-3.8305 0 l0 10.881 c0 0.20339 -0.13559 0.33881 -0.32203 0.33881 l-1.2542 0 c-0.54237 0 -0.84746 -0.37288 -0.84746 -0.86441 l0 -10.356 l-3.8136 0 c-0.16949 0 -0.33898 -0.13559 -0.33898 -0.32203 l0 -1.678 c0 -0.18644 0.15254 -0.33898 0.33898 -0.33898 l10.068 0 z M46.88135830508474 15.3559 c-0.16949 0 -0.33898 -0.15254 -0.33898 -0.32203 l0 -3.9153 c0 -0.18644 0.15254 -0.33898 0.32203 -0.33898 l1.4746 0 c0.20339 0 0.37288 0.15254 0.33898 0.33898 l-0.47458 3.9153 c-0.016949 0.16949 -0.13559 0.32203 -0.32203 0.32203 l-1 0 z M50.01677983050847 22.712 l0.72915 -1.1524 c0.13559 -0.23729 0.27119 -0.30508 0.47458 -0.20339 c0 0.016949 1.0169 0.52542 2 0.52542 c0.61017 0 0.86441 -0.18644 0.86441 -0.45763 c0 -0.33898 -0.35593 -0.45763 -1.4747 -0.74576 c-1.5254 -0.40678 -2.5763 -1.322 -2.5763 -2.6102 s1.1356 -2.5593 3.2203 -2.5593 c1.2542 0 1.9661 0.33898 2.7627 0.77966 c0.20339 0.11864 0.30508 0.32203 0.18644 0.49153 l-0.79695 1.2202 c-0.11864 0.16966 -0.28814 0.23746 -0.45763 0.18661 c-0.25424 -0.11864 -1 -0.44068 -1.6949 -0.44068 c-0.54237 0 -0.77983 0.20339 -0.77983 0.40678 c0 0.27119 0.4578 0.42373 1.2375 0.62712 c1.5085 0.40678 3 1.2034 3 2.7288 c0 1.4237 -1.4237 2.6098 -3.4915 2.6098 c-1.3898 0 -2.678 -0.6778 -3.1015 -1.0168 c-0.11864 -0.084746 -0.18644 -0.27119 -0.10169 -0.38983 z  M78.72918644067795 10.441 c0.18644 0 0.33915 0.15238 0.33915 0.32186 l0 12.898 c0 0.16949 -0.13559 0.33881 -0.3222 0.33881 l-1.7456 0 c-0.20339 0 -0.33898 -0.15238 -0.33898 -0.33881 l0 -8.2203 l-4.9492 7.8305 c-0.10186 0.16949 -0.20356 0.23729 -0.3561 0.23729 l-0.10169 0 c-0.15254 0 -0.25424 -0.067797 -0.35593 -0.23729 l-4.9322 -7.8475 l0 8.2375 c0 0.16949 -0.15254 0.33881 -0.33898 0.33881 l-1.7458 0 c-0.18644 0 -0.33898 -0.15238 -0.33898 -0.33881 l0 -12.898 c0 -0.16949 0.13559 -0.32203 0.33898 -0.32203 l1.4576 0 c0.16949 0 0.28814 0.067797 0.38983 0.22034 l5.5763 8.8134 l5.5932 -8.8134 c0.084746 -0.15254 0.20339 -0.22034 0.38983 -0.22034 l1.4407 0 z M85.35578305084745 24.11864 c2.3729 0 4.339 -1.8642 4.339 -4.3049 c0 -2.4746 -1.9661 -4.322 -4.339 -4.322 s-4.339 1.8475 -4.339 4.322 c0 2.4407 1.9661 4.3049 4.339 4.3049 z M85.35578305084745 21.9493 c-1.2034 0 -2.0847 -0.98305 -2.0847 -2.1186 c0 -1.1695 0.88136 -2.1525 2.0847 -2.1525 s2.0847 0.98305 2.0847 2.1525 c0 1.1356 -0.88136 2.1186 -2.0847 2.1186 z M97.60998135593219 15.9663 c0.22034 0.15254 0.30525 0.27119 0.13592 0.50847 l-0.88136 1.2881 c-0.10169 0.15254 -0.23729 0.20339 -0.44068 0.15254 c-0.23729 -0.084746 -0.47458 -0.20339 -0.98322 -0.20339 c-0.50847 0 -1.4576 0.22034 -1.7119 1.322 l0 4.6441 c0 0.16949 -0.13559 0.32186 -0.32203 0.32186 l-1.7119 0 c-0.16949 0 -0.30508 -0.15238 -0.30508 -0.32186 l0 -7.7456 c0 -0.16949 0.13559 -0.32203 0.30508 -0.32203 l1.1695 0 c0.45763 0 0.76271 0.40678 0.84729 0.76271 c0.50864 -0.44068 1.1697 -0.83068 2.1356 -0.83068 c0.86441 0 1.4746 0.22034 1.7627 0.42373 z M105.83054067796608 20.5934 c0.74576 0 1.2375 -0.40695 1.2375 -1.2205 c0 -1.9831 -1.5593 -3.8814 -4.0678 -3.8814 c-2.3729 0 -4.2203 1.8475 -4.2203 4.3051 c0 2.5763 1.949 4.288 4.3219 4.288 c1.5085 0 2.7119 -0.52542 3.4068 -1.5085 c0.11864 -0.15254 0.084746 -0.27119 -0.050847 -0.44068 l-0.38983 -0.5422 c-0.16949 -0.22034 -0.32203 -0.18644 -0.52542 -0.084746 c-0.45763 0.25424 -1.339 0.52542 -2.1695 0.52542 c-1.0169 0 -1.9322 -0.49153 -2.1356 -1.4405 l4.5932 0 z M101.2542406779661 18.796599999999998 c0.084746 -0.54237 0.72881 -1.1695 1.6949 -1.1695 c0.98305 0 1.5932 0.61017 1.678 1.1695 l-3.3729 0 z "></path></g><g id="SvgjsG1228" featureKey="text3" fill="#ccc" transform="matrix(2.294635786748349,0,0,2.294635786748349,245.75921695456566,229.2329061766858)"><path d="M12.207 23.496095 q-1.806640625 0.5859375 -3.90625 0.5859375 q-7.32421875 0 -7.32421875 -7.275390625 q0 -6.884765625 7.32421875 -6.884765625 q2.099609375 0 3.90625 0.5859375 l0 1.5625 q-1.806640625 -0.68359375 -3.7109375 -0.68359375 q-5.712890625 0 -5.712890625 5.419921875 q0 5.810546875 5.712890625 5.810546875 q1.904296875 0 3.7109375 -0.68359375 l0 1.5625 z M24.608777559245713 23.984375 l-1.875 0 l5.9277 -13.965 l2.002 0 l5.957 13.965 l-2.002 0 l-1.8066 -4.3945 l-4.6191 0 l0.49805 -1.4648 l3.5156 0 l-2.6074 -6.3281 z M49.295764493491426 10.019375 l0 13.965 l-1.8066 0 l0 -13.965 l1.8066 0 z M59.11996449349142 10.019375 l-6.2891 6.5918 l6.4258 7.373 l-2.5098 0 l-5.6934 -6.7188 l0 -1.0938 l5.7813 -6.1523 l2.2852 0 z M79.25612642773714 10.019375 l0 1.4648 l-7.3242 0 l0 4.6875 l6.9824 0 l0 1.4648 l-6.9824 0 l0 4.8828 l7.4707 0 l0 1.4648 l-9.2773 0 l0 -13.965 l9.1309 0 z"></path></g>
			</g>
		</svg>
	